<?xml version="1.0" encoding="UTF-8" standalone="no"?>
<!-- Created with Inkscape (http://www.inkscape.org/) -->

<svg
   height="64"
   id="svg6431"
   inkscape:version="1.1.2 (0a00cf5339, 2022-02-04, custom)"
   sodipodi:docname="XORcat.svg"
   sodipodi:version="0.32"
   width="64"
   version="1.1"
   xmlns:inkscape="http://www.inkscape.org/namespaces/inkscape"
   xmlns:sodipodi="http://sodipodi.sourceforge.net/DTD/sodipodi-0.dtd"
   xmlns="http://www.w3.org/2000/svg"
   xmlns:svg="http://www.w3.org/2000/svg"
   xmlns:rdf="http://www.w3.org/1999/02/22-rdf-syntax-ns#"
   xmlns:cc="http://creativecommons.org/ns#"
   xmlns:dc="http://purl.org/dc/elements/1.1/">
  <metadata
     id="metadata2">
    <rdf:RDF>
      <cc:Work
         rdf:about="">
        <dc:description>Boolean logic XOR operator</dc:description>
        <dc:subject>
          <rdf:Bag>
            <rdf:li>boolean</rdf:li>
            <rdf:li>xor</rdf:li>
            <rdf:li>logic</rdf:li>
          </rdf:Bag>
        </dc:subject>
        <dc:publisher>
          <cc:Agent
             rdf:about="http://www.openclipart.org/">
            <dc:title>Open Clip Art Library</dc:title>
          </cc:Agent>
        </dc:publisher>
        <dc:creator>
          <cc:Agent>
            <dc:title>Mika Bostr m</dc:title>
          </cc:Agent>
        </dc:creator>
        <dc:rights>
          <cc:Agent>
            <dc:title>Mika Bostr m</dc:title>
          </cc:Agent>
        </dc:rights>
        <dc:date>2006-06-21</dc:date>
        <dc:format>image/svg+xml</dc:format>
        <dc:type
           rdf:resource="http://purl.org/dc/dcmitype/StillImage" />
        <cc:license
           rdf:resource="http://web.resource.org/cc/PublicDomain" />
        <dc:language>en</dc:language>
      </cc:Work>
      <cc:License
         rdf:about="http://web.resource.org/cc/PublicDomain">
        <cc:permits
           rdf:resource="http://web.resource.org/cc/Reproduction" />
        <cc:permits
           rdf:resource="http://web.resource.org/cc/Distribution" />
        <cc:permits
           rdf:resource="http://web.resource.org/cc/DerivativeWorks" />
      </cc:License>
    </rdf:RDF>
  </metadata>
  <defs
     id="defs6433" />
  <sodipodi:namedview
     bordercolor="#666666"
     borderopacity="1.0"
     id="base"
     inkscape:current-layer="layer3"
     inkscape:cx="30.847533"
     inkscape:cy="31.908193"
     inkscape:document-units="px"
     inkscape:grid-bbox="true"
     inkscape:pageopacity="0"
     inkscape:pageshadow="2"
     inkscape:window-height="711"
     inkscape:window-width="1366"
     inkscape:window-x="0"
     inkscape:window-y="0"
     inkscape:zoom="5.6568543"
     pagecolor="#ffffff"
     showgrid="true"
     inkscape:pagecheckerboard="false"
     inkscape:window-maximized="1" />
  <g
     inkscape:groupmode="layer"
     id="layer4"
     inkscape:label="Sfondo">
    <rect
       style="fill:#000000;stroke:#fffffe;stroke-width:0;stroke-opacity:1"
       id="rect54298"
       width="63.999996"
       height="63.999996"
       x="0"
       y="7.133459e-08" />
  </g>
  <g
     id="layer1"
     inkscape:groupmode="layer"
     inkscape:label="Simbolo"
     transform="translate(-1.9545479,-1.7727299)">
    <circle
       id="path2815"
       style="fill:#000000;stroke:#fffffe;stroke-width:3;stroke-miterlimit:4;stroke-dasharray:none;stroke-opacity:1"
       cx="33.954548"
       cy="33.772728"
       r="30.412029" />
    <path
       d="m 33.954547,3.2644584 c 0,53.1248106 0,61.0165406 0,61.0165406 v 0"
       id="path3702"
       style="fill:#000000;fill-opacity:0.75;fill-rule:evenodd;stroke:#fffffe;stroke-width:3;stroke-linecap:butt;stroke-linejoin:miter;stroke-miterlimit:4;stroke-dasharray:none;stroke-opacity:1" />
    <path
       d="m 64.462817,33.772729 c -53.124811,0 -61.0165408,0 -61.0165408,0 v 0"
       id="path4589"
       style="fill:#000000;fill-opacity:0.75;fill-rule:evenodd;stroke:#fffffe;stroke-width:3;stroke-linecap:butt;stroke-linejoin:miter;stroke-miterlimit:4;stroke-dasharray:none;stroke-opacity:1" />
  </g>
  <g
     inkscape:groupmode="layer"
     id="layer3"
     inkscape:label="Testo"
     transform="translate(-1.9545479,-1.7727299)">
    <g
       id="g53586"
       transform="matrix(1.0586466,0,0,1.0586466,-0.65657811,0.34516882)"
       style="stroke-width:0.944602">
      <g
         aria-label="1"
         id="text9277"
         style="font-size:18.6667px;line-height:1.25;font-family:'DejaVu Sans Mono';-inkscape-font-specification:'DejaVu Sans Mono';fill:#00ff00">
        <path
           d="M 17.587646,24.609288 H 20.44963 V 14.209529 l -3.080734,0.69271 v -1.677086 l 3.062505,-0.674481 h 1.841149 v 12.058616 h 2.825526 v 1.549482 h -7.51043 z"
           id="path839" />
      </g>
      <g
         aria-label="1"
         id="text9277-3"
         style="font-size:18.6667px;line-height:1.25;font-family:'DejaVu Sans Mono';-inkscape-font-specification:'DejaVu Sans Mono';fill:#00ff00">
        <path
           d="m 40.508168,49.051344 h 2.861984 V 38.651586 l -3.080735,0.69271 v -1.677087 l 3.062506,-0.67448 h 1.841149 v 12.058615 h 2.825526 v 1.549482 h -7.51043 z"
           id="path842" />
      </g>
      <g
         aria-label="0
"
         id="text9277-7"
         style="font-size:18.6667px;line-height:1.25;font-family:'DejaVu Sans Mono';-inkscape-font-specification:'DejaVu Sans Mono';fill:#00ff00">
        <path
           d="m 42.93721,19.313705 q 0,-0.501303 0.346355,-0.865887 0.35547,-0.364584 0.847658,-0.364584 0.510418,0 0.875002,0.364584 0.364584,0.364584 0.364584,0.865887 0,0.510417 -0.364584,0.865887 -0.35547,0.355469 -0.875002,0.355469 -0.510418,0 -0.856772,-0.346355 -0.337241,-0.346355 -0.337241,-0.875001 z m 1.212242,-5.559906 q -1.285158,0 -1.92318,1.385419 -0.628908,1.385419 -0.628908,4.22006 0,2.825525 0.628908,4.210945 0.638022,1.385419 1.92318,1.385419 1.294273,0 1.923181,-1.385419 0.638022,-1.38542 0.638022,-4.210945 0,-2.834641 -0.638022,-4.22006 -0.628908,-1.385419 -1.923181,-1.385419 z m 0,-1.458336 q 2.17839,0 3.290371,1.786461 1.121095,1.786462 1.121095,5.277354 0,3.481777 -1.121095,5.268238 -1.111981,1.786462 -3.290371,1.786462 -2.178389,0 -3.29037,-1.786462 -1.111982,-1.786461 -1.111982,-5.268238 0,-3.490892 1.111982,-5.277354 1.111981,-1.786461 3.29037,-1.786461 z"
           id="path845" />
      </g>
      <g
         aria-label="0
"
         id="text9277-7-3"
         style="font-size:18.6667px;line-height:1.25;font-family:'DejaVu Sans Mono';-inkscape-font-specification:'DejaVu Sans Mono';fill:#00ff00">
        <path
           d="m 20.016687,43.755763 q 0,-0.501303 0.346355,-0.865887 0.355469,-0.364584 0.847657,-0.364584 0.510418,0 0.875002,0.364584 0.364584,0.364584 0.364584,0.865887 0,0.510418 -0.364584,0.865887 -0.355469,0.355469 -0.875002,0.355469 -0.510417,0 -0.856772,-0.346354 -0.33724,-0.346355 -0.33724,-0.875002 z m 1.212242,-5.559906 q -1.285159,0 -1.923181,1.385419 -0.628907,1.38542 -0.628907,4.22006 0,2.825526 0.628907,4.210945 0.638022,1.385419 1.923181,1.385419 1.294273,0 1.92318,-1.385419 0.638022,-1.385419 0.638022,-4.210945 0,-2.83464 -0.638022,-4.22006 -0.628907,-1.385419 -1.92318,-1.385419 z m 0,-1.458336 q 2.178389,0 3.29037,1.786462 1.121096,1.786461 1.121096,5.277353 0,3.481777 -1.121096,5.268239 -1.111981,1.786461 -3.29037,1.786461 -2.17839,0 -3.290371,-1.786461 -1.111981,-1.786462 -1.111981,-5.268239 0,-3.490892 1.111981,-5.277353 1.111981,-1.786462 3.290371,-1.786462 z"
           id="path848" />
      </g>
    </g>
  </g>
</svg>
